<?xml version="1.0" standalone="no"?>
<!DOCTYPE svg PUBLIC "-//W3C//DTD SVG 20010904//EN"
 "http://www.w3.org/TR/2001/REC-SVG-20010904/DTD/svg10.dtd">
<svg version="1.0" xmlns="http://www.w3.org/2000/svg"
 width="439.000000pt" height="450.000000pt" viewBox="0 0 439.000000 450.000000"
 preserveAspectRatio="xMidYMid meet">

<g transform="translate(0.000000,450.000000) scale(0.100000,-0.100000)"
fill="#7C3AED" stroke="none">
<path d="M1870 4169 c-95 -11 -144 -43 -182 -120 -27 -54 -37 -132 -19 -144 5
-3 12 -18 16 -34 6 -29 63 -90 103 -111 14 -6 90 -13 185 -16 91 -3 185 -12
216 -20 30 -8 67 -14 82 -14 14 0 46 -7 69 -15 23 -8 57 -15 75 -15 18 0 38
-7 45 -15 7 -8 27 -15 44 -15 18 0 41 -7 52 -15 10 -8 29 -15 40 -15 12 0 27
-7 34 -15 7 -8 21 -15 32 -15 27 0 222 -105 318 -171 42 -29 169 -129 225
-178 86 -75 259 -295 293 -373 6 -16 16 -28 22 -28 5 0 10 -8 10 -19 0 -10 7
-24 15 -31 8 -7 15 -20 15 -30 0 -10 7 -23 15 -30 8 -7 15 -22 15 -34 0 -12 6
-30 14 -41 7 -11 17 -36 21 -55 4 -19 11 -39 15 -45 5 -5 13 -32 19 -60 23
-116 32 -151 43 -169 25 -46 26 -569 1 -608 -4 -7 -14 -39 -20 -70 -33 -148
-41 -177 -66 -232 -15 -32 -27 -66 -27 -76 0 -10 -7 -23 -15 -30 -8 -7 -15
-20 -15 -30 0 -10 -7 -23 -15 -30 -8 -7 -15 -21 -15 -31 0 -10 -5 -21 -11 -24
-5 -4 -15 -17 -20 -28 -19 -42 -98 -163 -125 -192 -11 -11 -48 -54 -84 -95
-36 -40 -79 -90 -97 -109 -19 -20 -38 -58 -48 -93 -15 -55 -15 -60 4 -103 11
-25 53 -78 99 -124 62 -62 88 -82 123 -91 24 -6 49 -13 56 -15 7 -2 36 1 65 8
43 10 62 23 115 75 80 81 283 348 283 374 0 4 13 30 30 56 16 27 30 56 30 65
0 8 7 17 15 21 8 3 15 17 15 31 0 14 4 25 10 25 5 0 13 12 16 28 4 15 11 29
15 32 10 7 67 172 79 225 4 22 13 54 18 70 15 42 32 119 42 194 6 36 15 81 22
100 15 48 15 514 -1 555 -6 16 -14 63 -18 105 -3 42 -10 81 -15 88 -5 6 -13
33 -18 60 -12 68 -30 133 -45 168 -23 52 -43 109 -49 138 -4 15 -11 27 -16 27
-6 0 -10 8 -10 18 0 10 -7 27 -15 38 -8 10 -15 26 -15 35 0 9 -6 22 -14 28 -8
7 -17 24 -21 39 -4 15 -17 41 -31 59 -13 17 -24 37 -24 43 0 6 -19 38 -42 72
-24 33 -51 75 -62 92 -40 67 -216 264 -311 349 -137 121 -402 317 -431 317 -4
0 -15 6 -23 13 -14 12 -49 28 -236 112 -89 39 -185 70 -275 87 -30 6 -64 17
-75 24 -11 8 -38 14 -62 14 -23 0 -54 5 -69 10 -15 6 -96 15 -180 20 -84 6
-159 12 -166 14 -7 2 -47 -1 -88 -5z"/>
<path d="M1870 3172 c-24 -2 -47 -7 -50 -10 -3 -4 -17 -15 -32 -25 -41 -26
-68 -90 -68 -160 0 -32 5 -68 11 -80 16 -31 61 -77 75 -77 6 0 17 -6 23 -14 8
-9 46 -16 119 -20 59 -4 130 -12 157 -18 58 -12 173 -55 215 -79 8 -5 29 -16
45 -24 64 -33 81 -46 158 -121 43 -43 90 -99 103 -124 14 -25 36 -65 49 -89
14 -24 25 -51 25 -60 0 -9 8 -29 17 -46 24 -45 24 -340 0 -375 -9 -14 -17 -39
-17 -56 0 -17 -7 -37 -15 -44 -8 -7 -15 -20 -15 -30 0 -10 -7 -20 -15 -24 -8
-3 -15 -14 -15 -24 0 -10 -47 -71 -105 -136 -113 -128 -131 -164 -120 -239 7
-48 91 -159 135 -182 14 -7 39 -20 57 -29 74 -39 147 -6 271 120 45 47 82 90
82 96 0 5 14 27 30 48 17 21 30 41 30 45 0 4 14 30 30 57 17 26 30 53 30 60 0
9 24 65 50 119 5 9 12 38 16 64 3 26 13 60 20 74 20 38 20 412 0 449 -8 15
-18 48 -21 74 -3 26 -10 50 -16 53 -5 4 -9 16 -9 28 0 13 -6 31 -14 42 -7 11
-16 32 -20 48 -3 15 -20 49 -36 76 -17 26 -30 53 -30 60 0 6 -4 11 -10 11 -5
0 -10 6 -10 13 0 20 -133 178 -194 231 -32 26 -80 63 -109 82 -29 19 -56 38
-62 42 -5 4 -26 16 -45 26 -19 11 -42 23 -50 27 -8 5 -22 12 -30 15 -8 3 -28
12 -43 20 -16 7 -37 14 -47 14 -10 0 -25 6 -32 13 -7 8 -31 17 -53 21 -22 4
-51 11 -65 16 -89 31 -287 52 -400 42z"/>
<path d="M686 2418 c-9 -12 -16 -30 -16 -40 0 -10 -4 -18 -10 -18 -5 0 -13
-15 -19 -32 -19 -63 -38 -109 -49 -120 -7 -7 -12 -19 -12 -28 0 -9 -7 -25 -15
-36 -8 -10 -15 -29 -15 -40 0 -12 -7 -27 -15 -34 -8 -7 -15 -23 -15 -35 0 -12
-7 -28 -15 -35 -8 -7 -15 -17 -15 -22 0 -8 -13 -40 -50 -123 -5 -11 -18 -42
-30 -70 -11 -27 -27 -62 -35 -77 -8 -14 -15 -36 -15 -47 0 -12 -4 -21 -10 -21
-5 0 -10 -5 -10 -11 0 -7 -9 -30 -19 -53 -38 -82 -51 -114 -51 -129 0 -8 -6
-17 -13 -20 -20 -8 -41 -101 -27 -126 10 -20 19 -21 204 -21 168 0 195 -2 200
-16 3 -9 6 -235 6 -504 l0 -488 25 -16 c39 -25 87 -21 118 12 l27 28 2 489 3
490 194 5 195 5 7 28 c7 27 -5 82 -22 102 -5 5 -9 19 -9 31 0 12 -7 27 -15 34
-8 7 -15 20 -15 29 0 10 -7 26 -15 37 -8 10 -15 26 -15 35 0 9 -7 22 -15 29
-8 7 -15 21 -15 31 0 24 -41 119 -52 119 -4 0 -8 7 -8 16 0 16 -13 48 -50 129
-10 22 -26 58 -35 80 -9 22 -23 54 -30 70 -56 123 -75 166 -75 176 0 6 -6 23
-14 37 -24 47 -46 102 -46 116 0 17 -43 56 -63 56 -9 0 -23 -10 -31 -22z"/>
<path d="M1785 2390 c-11 -4 -38 -13 -60 -19 -63 -17 -149 -94 -181 -161 -9
-19 -23 -47 -31 -62 -20 -39 -18 -247 2 -254 8 -4 15 -14 15 -23 0 -23 77
-131 93 -131 7 0 29 -16 50 -36 l37 -36 0 -714 c0 -469 3 -714 10 -714 13 -1
277 -1 290 0 7 0 10 238 10 712 l-1 713 30 25 c17 14 47 38 67 54 20 16 40 39
45 50 5 12 20 36 33 54 40 54 48 268 13 333 -55 102 -145 185 -213 196 -19 3
-37 10 -40 14 -7 11 -142 10 -169 -1z"/>
</g>
</svg>
